<?xml version="1.0" encoding="UTF-8"?>
<svg width="18px" height="19px" viewBox="0 0 18 19" version="1.1" xmlns="http://www.w3.org/2000/svg" xmlns:xlink="http://www.w3.org/1999/xlink">
    <!-- Generator: Sketch 53.2 (72643) - https://sketchapp.com -->
    <title>Fill 1</title>
    <desc>Created with Sketch.</desc>
    <g id="Page-1" stroke="none" stroke-width="1" fill="none" fill-rule="evenodd">
        <g id="Mobile-Copy" transform="translate(-20.000000, -646.000000)" fill="#000000">
            <path d="M36.5906068,651.339185 L36.5520188,651.377773 L33.5398273,648.365581 L33.5784153,648.326993 C33.9935854,647.911823 34.538932,647.704006 35.0842786,647.704006 C35.6296252,647.704006 36.1754367,647.911823 36.5906068,648.326993 C37.420947,649.157334 37.420947,650.508845 36.5906068,651.339185 L36.5906068,651.339185 Z M21.548246,660.835096 L24.0820388,663.369354 L20.8982932,664.019307 L21.548246,660.835096 Z M24.8779752,663.051816 L21.8657837,660.039625 L30.9437357,650.961673 L33.9559272,653.973864 L24.8779752,663.051816 Z M34.5017387,653.406202 L31.5113983,650.415861 L32.9940157,648.932779 L35.9848211,651.923119 L34.5017387,653.406202 Z M37.1471114,647.770489 C36.0099266,646.633304 34.1590955,646.633304 33.0219107,647.770489 L31.828936,648.962999 C31.8331202,648.966718 31.8373045,648.969972 31.8410238,648.973227 L30.7526552,650.06113 C30.7215058,650.078797 30.6922161,650.100183 30.6657159,650.126684 L21.0307943,659.761605 C21.0182416,659.773693 21.0070836,659.787176 20.9968554,659.800658 C20.9945309,659.803913 20.9922063,659.807167 20.9898817,659.810421 C20.9801185,659.823904 20.9712851,659.837851 20.9633815,659.852264 C20.9629166,659.852729 20.9629166,659.853194 20.9624517,659.853659 C20.9540832,659.869466 20.9471094,659.885738 20.9406006,659.90201 C20.9396708,659.904799 20.9387409,659.907589 20.9378111,659.910378 C20.9322321,659.926185 20.9275829,659.942458 20.9243285,659.95873 C20.9243285,659.959194 20.9238636,659.960124 20.9238636,659.961054 L20.9233987,659.962914 C20.9229338,659.963844 20.9229338,659.964773 20.9229338,659.965238 L20.0079789,664.44517 C19.9814787,664.574417 20.0219264,664.708778 20.1153745,664.802226 C20.1897611,664.876612 20.290183,664.917525 20.3938592,664.917525 C20.4198945,664.917525 20.4463948,664.914735 20.4724301,664.909156 L24.9523617,663.994666 C24.9528267,663.994666 24.9532916,663.994666 24.9542214,663.994201 L24.956546,663.993737 C24.9574758,663.993737 24.9584056,663.993272 24.9593355,663.993272 C24.9751426,663.989552 24.9914147,663.985368 25.0067569,663.979789 C25.0095464,663.978859 25.0128008,663.977929 25.0155903,663.976535 C25.0318624,663.970491 25.0481345,663.963517 25.0639416,663.955148 C25.0644065,663.954684 25.0648714,663.954219 25.0658013,663.954219 C25.0802137,663.946315 25.0936962,663.937482 25.1071788,663.927718 C25.1104332,663.925394 25.1136876,663.923069 25.116942,663.920745 C25.1304246,663.910052 25.1434423,663.898894 25.155995,663.886806 L34.7909165,654.251884 C34.8174167,654.225384 34.8388029,654.196094 34.8564697,654.16448 L36.3051483,652.715801 C36.3088676,652.719056 36.3130519,652.72231 36.3167712,652.72603 L37.1471114,651.895689 C38.2842962,650.758505 38.2842962,648.907674 37.1471114,647.770489 L37.1471114,647.770489 Z" id="Fill-1"></path>
        </g>
    </g>
</svg>